# xmcd
#
# Track frame offsets:
#	150
#	17398
#	32584
#	50505
#	69627
#	81630
#	101683
#	114820
#	133425
#	150304
#	166234
#	183635
#	201785
#	219609
#
# Disc length: 3232
#
# Revision: 1
# Processed by: cddbd v1.5.2PL0 Copyright (c) Steve Scherf et al.
# Submitted via: kJams Lite (development) 1.0patch47.31
#
DISCID=bf0c9e0e
DTITLE=Various Artist - SD098
DYEAR=1998
DGENRE=Country
TTITLE0=Urban, Keith - Somebody Like You
TTITLE1=Johnson, Carolyn Dawn - One Day Closer To You
TTITLE2=Tritt, Travis - Strong Enough To Be Your Man
TTITLE3=Yearwood, Trisha - I Don't Paint Myself Into Corners
TTITLE4=Emerson Drive - Fall Into Me
TTITLE5=Coffee, Kellie - At The End Of Everyday
TTITLE6=Tippin, Aaron - If Her Lovin' Don't Kill Me
TTITLE7=Azar, Steve - Waitin' On Joe
TTITLE8=Little Big Town - Everything Changes
TTITLE9=Harter, J. Michael - Hard Call To Make
TTITLE10=Nelson, Willie - Maria (Shut Up and Kiss Me)
TTITLE11=Montgomery, John Michael - Untill Nothing Comes Between Us
TTITLE12=Brock, Chad - N's Gotta Do, A
TTITLE13=McGuinn, Mark - More Beautiful Day
EXTD=
EXTT0=
EXTT1=
EXTT2=
EXTT3=
EXTT4=
EXTT5=
EXTT6=
EXTT7=
EXTT8=
EXTT9=
EXTT10=
EXTT11=
EXTT12=
EXTT13=
PLAYORDER=
